<?xml version="1.0" encoding="UTF-8"?>
<svg version="1.1" xmlns="http://www.w3.org/2000/svg" width="180" height="180">
<path d="M0 0 C0.96315125 -0.00571014 1.92630249 -0.01142029 2.91864014 -0.01730347 C3.97892929 -0.01842133 5.03921844 -0.01953918 6.13163757 -0.02069092 C7.24555878 -0.02565582 8.35947998 -0.03062073 9.50715637 -0.03573608 C13.20580149 -0.05038532 16.90440371 -0.05716441 20.60307312 -0.06268311 C23.16656496 -0.0684324 25.73005678 -0.07419016 28.29354858 -0.07995605 C32.98621991 -0.0891284 37.67887401 -0.09542543 42.37155277 -0.09845281 C49.27660079 -0.10293191 56.18145069 -0.12047185 63.08643848 -0.1494534 C69.06758954 -0.17368533 75.04864698 -0.18139767 81.02985191 -0.18312836 C83.57399257 -0.18615929 86.1181323 -0.19420255 88.66224098 -0.20731354 C92.21990142 -0.2243385 95.7770781 -0.22250214 99.33476257 -0.21600342 C100.91608727 -0.22982559 100.91608727 -0.22982559 102.52935791 -0.243927 C111.68724987 -0.19143509 111.68724987 -0.19143509 115.42729187 3.14044189 C116.64100211 6.78157261 116.59066464 10.13704079 116.60429382 13.92901611 C116.61086502 14.72121552 116.61743622 15.51341492 116.62420654 16.32962036 C116.64391913 18.95145767 116.65559639 21.57323782 116.66557312 24.19512939 C116.66964865 25.09080753 116.67372417 25.98648567 116.6779232 26.90930557 C116.69877332 31.64829528 116.7130807 36.3872561 116.72245789 41.12628174 C116.73353173 46.02132723 116.76794576 50.91591933 116.80762959 55.81080437 C116.83376564 59.57519377 116.84214694 63.33947452 116.84573936 67.10394669 C116.85061162 68.90846958 116.86224378 70.71298743 116.88077736 72.51742172 C116.90510954 75.04300755 116.90421518 77.56741161 116.89726257 80.09307861 C116.91007263 80.83714966 116.92288269 81.5812207 116.93608093 82.34783936 C116.9003345 85.91278775 116.50809162 88.00691822 114.6479187 91.0809021 C111.29355215 94.19193873 108.25679912 94.2648383 103.80389404 94.27415466 C102.88006424 94.27841965 101.95623444 94.28268463 101.00440979 94.28707886 C99.99806488 94.28662567 98.99171997 94.28617249 97.95487976 94.28570557 C96.88943436 94.28906418 95.82398895 94.29242279 94.72625732 94.29588318 C91.2008091 94.30538983 87.67540837 94.30733608 84.14994812 94.30841064 C81.70141581 94.31162314 79.2528837 94.3149872 76.80435181 94.3184967 C71.67060399 94.32448706 66.53687301 94.32633667 61.40312195 94.32574463 C54.82115594 94.32564295 48.23929767 94.33930189 41.65735722 94.35651684 C36.60021467 94.36762802 31.54309825 94.36966412 26.48594475 94.3691349 C24.05903692 94.37031609 21.63212845 94.37474561 19.20523262 94.38246727 C15.8131108 94.39225032 12.42122401 94.38939578 9.02909851 94.38336182 C8.02477783 94.38898132 7.02045715 94.39460083 5.98570251 94.40039062 C-3.10958009 94.35922074 -3.10958009 94.35922074 -6.57270813 92.14044189 C-9.92855876 88.14368261 -10.00247012 84.22556945 -9.96089172 79.21661377 C-9.96614868 78.43387589 -9.97140564 77.651138 -9.9768219 76.84468079 C-9.98998941 74.26597948 -9.98129554 71.68789912 -9.97114563 69.10919189 C-9.9731673 67.312275 -9.97607952 65.51535891 -9.97984314 63.71844482 C-9.98426208 59.95587335 -9.97784929 56.19351581 -9.96382141 52.43096924 C-9.94672975 47.61224081 -9.95657324 42.79401369 -9.9745388 37.97530365 C-9.98538826 34.26579015 -9.98192497 30.55639516 -9.97415543 26.84687805 C-9.97215663 25.07029664 -9.97460143 23.2937044 -9.98159409 21.51713562 C-9.98922773 19.03255786 -9.97757803 16.54878775 -9.96089172 14.06427002 C-9.97000076 12.96690269 -9.97000076 12.96690269 -9.97929382 11.84736633 C-9.92468013 7.44963105 -9.28111279 4.63818905 -6.57270813 1.14044189 C-4.17363838 -0.05909298 -2.67927599 0.00949128 0 0 Z " fill="#014AAD" transform="translate(38.57270812988281,29.85955810546875)"/>
<path d="M0 0 C0 1.98 0 3.96 0 6 C3.96 6 7.92 6 12 6 C12 7.65 12 9.3 12 11 C15.63 11 19.26 11 23 11 C21.68 14.3 20.36 17.6 19 21 C22.96 21.66 26.92 22.32 31 23 C31 26 31 26 29.5 27.6875 C29.005 28.120625 28.51 28.55375 28 29 C30.64 29.66 33.28 30.32 36 31 C35.01 32.32 34.02 33.64 33 35 C35.64 36.32 38.28 37.64 41 39 C41 39.33 41 39.66 41 40 C38.36 40.66 35.72 41.32 33 42 C34.0725 42.433125 35.145 42.86625 36.25 43.3125 C39.17398831 44.5622692 41.53109405 45.97197012 44 48 C45.485 48.99 45.485 48.99 47 50 C43.19215772 52.53856152 40.03753105 52.35033783 35.6171875 52.4140625 C34.77925156 52.43351929 33.94131561 52.45297607 33.07798767 52.47302246 C30.34376197 52.53362659 27.60952156 52.57986715 24.875 52.625 C22.98656325 52.66214209 21.09813544 52.69974155 19.2097168 52.73779297 C13.80668998 52.84215959 8.40351491 52.92559892 3 53 C1.07003174 53.02707031 1.07003174 53.02707031 -0.89892578 53.0546875 C-12.71154922 53.19351663 -24.51780114 53.00607796 -36.32608032 52.68060303 C-38.33208942 52.6261645 -40.33828842 52.57887317 -42.34448242 52.53173828 C-43.5585376 52.49290527 -44.77259277 52.45407227 -46.0234375 52.4140625 C-47.64644775 52.36693115 -47.64644775 52.36693115 -49.30224609 52.31884766 C-52 52 -52 52 -55 50 C-53.28256011 45.82466709 -50.36722009 42.73611294 -47.4375 39.375 C-43.85426322 35.44179069 -43.85426322 35.44179069 -41 31 C-34.73 31 -28.46 31 -22 31 C-21.9484375 29.31390625 -21.896875 27.6278125 -21.84375 25.890625 C-21.73119175 23.67697943 -21.61649694 21.46344178 -21.5 19.25 C-21.45746094 17.58324219 -21.45746094 17.58324219 -21.4140625 15.8828125 C-20.93134931 7.8697736 -20.93134931 7.8697736 -18.2902832 5.40332031 C-16.21303664 4.34680442 -14.24053656 3.62999947 -12 3 C-11.12730469 2.65453125 -10.25460938 2.3090625 -9.35546875 1.953125 C-8.64003906 1.72109375 -7.92460938 1.4890625 -7.1875 1.25 C-6.45917969 1.00765625 -5.73085937 0.7653125 -4.98046875 0.515625 C-3 0 -3 0 0 0 Z " fill="#3F4655" transform="translate(96,50)"/>
<path d="M0 0 C3.96 0 7.92 0 12 0 C12 1.65 12 3.3 12 5 C15.63 5 19.26 5 23 5 C21.68 8.3 20.36 11.6 19 15 C24.94 15.99 24.94 15.99 31 17 C31 20 31 20 29.5 21.6875 C29.005 22.120625 28.51 22.55375 28 23 C30.64 23.66 33.28 24.32 36 25 C35.01 26.32 34.02 27.64 33 29 C35.64 30.32 38.28 31.64 41 33 C41 33.33 41 33.66 41 34 C38.36 34.66 35.72 35.32 33 36 C35.31 36.99 37.62 37.98 40 39 C40 39.33 40 39.66 40 40 C38.91203125 40.10957031 37.8240625 40.21914062 36.703125 40.33203125 C26.71474542 41.38536523 26.71474542 41.38536523 16.9375 43.625 C9.69612118 45.63481086 2.44456636 45.25508032 -5 45 C-5 44.34 -5 43.68 -5 43 C-2.525 42.505 -2.525 42.505 0 42 C0 28.14 0 14.28 0 0 Z " fill="#F2F2F3" transform="translate(96,56)"/>
<path d="M0 0 C0 14.19 0 28.38 0 43 C-2.31 41.02 -4.62 39.04 -7 37 C-8.03125 36.14019531 -9.0625 35.28039062 -10.125 34.39453125 C-17.70445404 27.58744006 -17.70445404 27.58744006 -18.515625 23.23046875 C-18.23966456 20.39375779 -17.66990566 17.76868525 -17 15 C-16.78199573 12.94050088 -16.59350785 10.87762083 -16.4375 8.8125 C-16.29166667 7.20833333 -16.14583333 5.60416667 -16 4 C-14.72942818 3.52014033 -13.45853152 3.0411407 -12.1875 2.5625 C-11.47980469 2.29566406 -10.77210937 2.02882812 -10.04296875 1.75390625 C-6.26088124 0.35822195 -4.23107247 0 0 0 Z " fill="#FCFCFC" transform="translate(93,54)"/>
<path d="M0 0 C5.94 0.99 5.94 0.99 12 2 C12 5 12 5 10.5 6.6875 C10.005 7.120625 9.51 7.55375 9 8 C11.64 8.66 14.28 9.32 17 10 C16.01 11.32 15.02 12.64 14 14 C16.64 15.32 19.28 16.64 22 18 C22 18.33 22 18.66 22 19 C19.36 19.66 16.72 20.32 14 21 C16.31 21.99 18.62 22.98 21 24 C21 24.33 21 24.66 21 25 C18.29215006 25.33772739 15.58383004 25.67030687 12.875 26 C12.11445312 26.09539062 11.35390625 26.19078125 10.5703125 26.2890625 C6.35090048 26.79830188 2.25995656 27.10888068 -2 27 C-2.33 26.01 -2.66 25.02 -3 24 C-3.598125 24.350625 -4.19625 24.70125 -4.8125 25.0625 C-7 26 -7 26 -10 25 C-9.01 23.68 -8.02 22.36 -7 21 C-8.65 22.32 -10.3 23.64 -12 25 C-12.66 24.67 -13.32 24.34 -14 24 C-13.57589844 23.35675781 -13.15179688 22.71351562 -12.71484375 22.05078125 C-8.06448094 14.88615636 -3.95565376 7.56263288 0 0 Z " fill="#F9FAFA" transform="translate(115,71)"/>
<path d="M0 0 C1.65 0 3.3 0 5 0 C6.12862175 5.36095333 6.09688221 10.55306686 6 16 C6.66 16 7.32 16 8 16 C7.67 15.34 7.34 14.68 7 14 C6.76970044 11.62876754 6.58880058 9.25258057 6.4375 6.875 C6.31181641 4.95300781 6.31181641 4.95300781 6.18359375 2.9921875 C6.12300781 2.00476563 6.06242187 1.01734375 6 0 C10.15465958 -0.69244326 13.57722462 -1.00063324 17.1328125 1.5 C19.20925401 3.58458442 21.11499417 5.74104564 23 8 C24.33301871 9.50027961 25.66633425 11.00029555 27 12.5 C28.00294665 13.6641345 29.00410691 14.82982562 30 16 C29.01 16.33 28.02 16.66 27 17 C26.67 16.67 26.34 16.34 26 16 C24.68 16.33 23.36 16.66 22 17 C19.36 12.71 16.72 8.42 14 4 C14.804375 5.588125 15.60875 7.17625 16.4375 8.8125 C17.82201105 11.54602182 19.02983736 14.08951208 20 17 C18.35 17 16.7 17 15 17 C14.01 15.02 13.02 13.04 12 11 C12.33 12.98 12.66 14.96 13 17 C6.73 17 0.46 17 -6 17 C-6 16.34 -6 15.68 -6 15 C-6.33 15.66 -6.66 16.32 -7 17 C-8.98 17 -10.96 17 -13 17 C-10.42128097 11.23580452 -7.00536032 5.88364414 -3 1 C-2.34 1 -1.68 1 -1 1 C-1 1.99 -1 2.98 -1 4 C-0.67 2.68 -0.34 1.36 0 0 Z " fill="#B3B2B2" transform="translate(59,82)"/>
<path d="M0 0 C3.63 0 7.26 0 11 0 C9.6188756 12.97530031 7.45707233 25.4695137 1 37 C0.67 37 0.34 37 0 37 C0 24.79 0 12.58 0 0 Z " fill="#FEFEFE" transform="translate(97,57)"/>
<path d="M0 0 C0 15.84 0 31.68 0 48 C-1.98 48.495 -1.98 48.495 -4 49 C-6.578125 46.91015625 -6.578125 46.91015625 -9.25 44.0625 C-10.14203125 43.12535156 -11.0340625 42.18820313 -11.953125 41.22265625 C-12.96632813 40.12244141 -12.96632813 40.12244141 -14 39 C-13.67 38.34 -13.34 37.68 -13 37 C-10.03 39.97 -7.06 42.94 -4 46 C-3.67 32.14 -3.34 18.28 -3 4 C-7.95 5.32 -12.9 6.64 -18 8 C-18.66 13.28 -19.32 18.56 -20 24 C-20.33 24 -20.66 24 -21 24 C-20.67 18.39 -20.34 12.78 -20 7 C-6.72413793 0 -6.72413793 0 0 0 Z " fill="#555253" transform="translate(96,50)"/>
<path d="M0 0 C3.96 0 7.92 0 12 0 C12 0.33 12 0.66 12 1 C8.37 1 4.74 1 1 1 C1.33 12.88 1.66 24.76 2 37 C2.99 37 3.98 37 5 37 C5.66 37.66 6.32 38.32 7 39 C8.65 37.68 10.3 36.36 12 35 C12.66 35.33 13.32 35.66 14 36 C12.68 37.32 11.36 38.64 10 40 C12.64 39.34 15.28 38.68 18 38 C18 38.99 18 39.98 18 41 C18.66 41.66 19.32 42.32 20 43 C11.63994116 45.38858824 3.61264844 45.190218 -5 45 C-5 44.34 -5 43.68 -5 43 C-2.525 42.505 -2.525 42.505 0 42 C0 28.14 0 14.28 0 0 Z " fill="#EBECEE" transform="translate(96,56)"/>
<path d="M0 0 C3.3 1.65 6.6 3.3 10 5 C10 5.33 10 5.66 10 6 C7.36 6.66 4.72 7.32 2 8 C5.465 9.485 5.465 9.485 9 11 C9 11.33 9 11.66 9 12 C6.29215006 12.33772739 3.58383004 12.67030687 0.875 13 C0.11445312 13.09539062 -0.64609375 13.19078125 -1.4296875 13.2890625 C-5.64909952 13.79830188 -9.74004344 14.10888068 -14 14 C-13.875 11.765625 -13.875 11.765625 -13 9 C-10.3125 6.796875 -10.3125 6.796875 -7 4.75 C-5.906875 4.06421875 -4.81375 3.3784375 -3.6875 2.671875 C-2.800625 2.12015625 -1.91375 1.5684375 -1 1 C-0.67 0.67 -0.34 0.34 0 0 Z " fill="#F1F1F2" transform="translate(127,84)"/>
<path d="M0 0 C2.45548789 0.89332115 3.60784556 1.93997161 5.40625 3.82421875 C6.00179687 4.44554688 6.59734375 5.066875 7.2109375 5.70703125 C10.23376957 9.00580649 13.18707897 12.36029521 16.09375 15.76171875 C15.10375 16.09171875 14.11375 16.42171875 13.09375 16.76171875 C12.76375 16.43171875 12.43375 16.10171875 12.09375 15.76171875 C10.77375 16.09171875 9.45375 16.42171875 8.09375 16.76171875 C5.45375 12.47171875 2.81375 8.18171875 0.09375 3.76171875 C0.898125 5.34984375 1.7025 6.93796875 2.53125 8.57421875 C3.91576105 11.30774057 5.12358736 13.85123083 6.09375 16.76171875 C4.44375 16.76171875 2.79375 16.76171875 1.09375 16.76171875 C0.10375 13.79171875 -0.88625 10.82171875 -1.90625 7.76171875 C-2.56625 7.76171875 -3.22625 7.76171875 -3.90625 7.76171875 C-4.59375 5.44921875 -4.59375 5.44921875 -4.90625 2.76171875 C-3.44260655 0.45070277 -2.78102241 -0.3476278 0 0 Z " fill="#929090" transform="translate(72.90625,82.23828125)"/>
<path d="M0 0 C2.67032021 2.38674638 4.13173219 4.91858446 5.8125 8.0625 C7.88759737 11.63541201 8.55847188 12.78741238 12.375 14.625 C13.24125 14.74875 14.1075 14.8725 15 15 C15 15.66 15 16.32 15 17 C18.96 17 22.92 17 27 17 C27 17.33 27 17.66 27 18 C8.63976131 18.16019 -9.65714623 17.71433589 -28 17 C-28 16.67 -28 16.34 -28 16 C-20.75727293 15.35517851 -13.6131175 14.88750394 -6.33984375 15.0625 C-3.691526 15.07626735 -3.691526 15.07626735 0 14 C-0.66 11.03 -1.32 8.06 -2 5 C0.46278801 7.46278801 0.99771255 9.70676982 2 13 C4.475 13.495 4.475 13.495 7 14 C6.4946875 13.15695313 5.989375 12.31390625 5.46875 11.4453125 C4.49421875 9.80175781 4.49421875 9.80175781 3.5 8.125 C2.8503125 7.03445312 2.200625 5.94390625 1.53125 4.8203125 C0 2 0 2 0 0 Z " fill="#4D525E" transform="translate(72,85)"/>
<path d="M0 0 C0.66 0 1.32 0 2 0 C3.12862175 5.36095333 3.09688221 10.55306686 3 16 C3.66 16 4.32 16 5 16 C4.67 15.34 4.34 14.68 4 14 C3.76970044 11.62876754 3.58880058 9.25258057 3.4375 6.875 C3.35371094 5.59367187 3.26992187 4.31234375 3.18359375 2.9921875 C3.12300781 2.00476563 3.06242187 1.01734375 3 0 C4.65 0 6.3 0 8 0 C8.33 0.99 8.66 1.98 9 3 C8.01 3 7.02 3 6 3 C6.28875 3.75925781 6.5775 4.51851563 6.875 5.30078125 C7.431875 6.79158203 7.431875 6.79158203 8 8.3125 C8.37125 9.29863281 8.7425 10.28476563 9.125 11.30078125 C10 14 10 14 10 17 C6.04 17 2.08 17 -2 17 C-1.34 11.39 -0.68 5.78 0 0 Z " fill="#CECDCD" transform="translate(62,82)"/>
<path d="M0 0 C0 4.0116196 -1.90487068 6.42093858 -4 9.6875 C-4.3815625 10.29400391 -4.763125 10.90050781 -5.15625 11.52539062 C-6.09818472 13.02071199 -7.04831375 14.51086593 -8 16 C-6.35 16.33 -4.7 16.66 -3 17 C-2.34 15.68 -1.68 14.36 -1 13 C-1 13.99 -1 14.98 -1 16 C0.65 16.33 2.3 16.66 4 17 C4.33 15.68 4.66 14.36 5 13 C5 14.32 5 15.64 5 17 C7.97 17 10.94 17 14 17 C13.67 17.66 13.34 18.32 13 19 C4.42 19 -4.16 19 -13 19 C-13 14.66948416 -12.8484349 14.33094662 -10.15625 11.328125 C-9.56972656 10.66425781 -8.98320313 10.00039062 -8.37890625 9.31640625 C-7.75886719 8.63449219 -7.13882813 7.95257813 -6.5 7.25 C-5.87996094 6.55261719 -5.25992188 5.85523437 -4.62109375 5.13671875 C-3.0893336 3.41643427 -1.54891946 1.70482543 0 0 Z " fill="#4C4C50" transform="translate(55,82)"/>
<path d="M0 0 C1.27617187 -0.01836914 1.27617187 -0.01836914 2.578125 -0.03710938 C7.04118112 -0.04753708 10.57046621 0.07680648 14.625 2.1875 C14.295 2.8475 13.965 3.5075 13.625 4.1875 C4.385 4.1875 -4.855 4.1875 -14.375 4.1875 C-10.85248144 -1.09627783 -5.79424815 0.00435004 0 0 Z " fill="#292628" transform="translate(128.375,96.8125)"/>
<path d="M0 0 C4 5 4 5 8 10 C3.33933162 9.37017995 3.33933162 9.37017995 1.625 7.5 C-0.47921883 5.55764416 -1.86562066 5.51698401 -4.6875 5.3125 C-5.49574219 5.24675781 -6.30398437 5.18101563 -7.13671875 5.11328125 C-7.75160156 5.07589844 -8.36648437 5.03851563 -9 5 C-8.67 5.99 -8.34 6.98 -8 8 C-7.77548542 10.22574335 -7.59217122 12.45581519 -7.4375 14.6875 C-7.35371094 15.86699219 -7.26992187 17.04648438 -7.18359375 18.26171875 C-7.12300781 19.16535156 -7.06242187 20.06898437 -7 21 C-7.66 21 -8.32 21 -9 21 C-9.33 15.72 -9.66 10.44 -10 5 C-10.66 5 -11.32 5 -12 5 C-12.33 6.32 -12.66 7.64 -13 9 C-13 7.68 -13 6.36 -13 5 C-13.66 5 -14.32 5 -15 5 C-15.33 6.98 -15.66 8.96 -16 11 C-16.33 10.01 -16.66 9.02 -17 8 C-16.67 7.34 -16.34 6.68 -16 6 C-16.99 5.67 -17.98 5.34 -19 5 C-19 4.67 -19 4.34 -19 4 C-12.73 4 -6.46 4 0 4 C0 2.68 0 1.36 0 0 Z " fill="#6B7687" transform="translate(74,77)"/>
<path d="M0 0 C0 0.33 0 0.66 0 1 C-2.70784994 1.33772739 -5.41616996 1.67030687 -8.125 2 C-8.88554688 2.09539062 -9.64609375 2.19078125 -10.4296875 2.2890625 C-14.64909952 2.79830188 -18.74004344 3.10888068 -23 3 C-22.67 1.68 -22.34 0.36 -22 -1 C-21.01 -0.67 -20.02 -0.34 -19 0 C-17.11452454 -0.5721066 -17.11452454 -0.5721066 -15.1875 -1.5 C-9.54452286 -3.76339193 -5.42955163 -2.39539043 0 0 Z " fill="#F8F8F9" transform="translate(136,95)"/>
<path d="M0 0 C0.66 0.33 1.32 0.66 2 1 C2 1.66 2 2.32 2 3 C2.66 3.66 3.32 4.32 4 5 C-4.36005884 7.38858824 -12.38735156 7.190218 -21 7 C-21 6.34 -21 5.68 -21 5 C-19.68 4.67 -18.36 4.34 -17 4 C-17 4.66 -17 5.32 -17 6 C-14.54105116 5.18932465 -12.08283312 4.37654509 -9.625 3.5625 C-8.57699219 3.21735352 -8.57699219 3.21735352 -7.5078125 2.86523438 C-3.68189163 1.61264601 -3.68189163 1.61264601 0 0 Z " fill="#C8C7C8" transform="translate(112,94)"/>
<path d="M0 0 C0.66 0 1.32 0 2 0 C3.22517308 5.66642551 3.09228867 11.23708518 3 17 C1.35 17 -0.3 17 -2 17 C-1.34 11.39 -0.68 5.78 0 0 Z " fill="#DBDBDB" transform="translate(62,82)"/>
<path d="M0 0 C0.99 0 1.98 0 3 0 C2.52309796 1.62566606 2.04340334 3.25051311 1.5625 4.875 C1.29566406 5.77992187 1.02882813 6.68484375 0.75390625 7.6171875 C0 10 0 10 -1 12 C-2.98 12 -4.96 12 -7 12 C-4.9765067 7.75066407 -2.85809119 3.75124469 0 0 Z " fill="#D0CECF" transform="translate(53,87)"/>
<path d="M0 0 C0 4.16726122 -2.07471555 6.78819185 -4.25 10.1875 C-4.64574219 10.84169922 -5.04148437 11.49589844 -5.44921875 12.16992188 C-6.640625 14.04296875 -6.640625 14.04296875 -9 17 C-10.32 17 -11.64 17 -13 17 C-11.2703384 12.79046213 -8.31793255 9.64856424 -5.375 6.25 C-4.859375 5.64800781 -4.34375 5.04601562 -3.8125 4.42578125 C-2.54530865 2.94739134 -1.27314225 1.47326829 0 0 Z " fill="#3A3A41" transform="translate(55,82)"/>
<path d="M0 0 C3.78570414 1.26190138 4.21831571 2.54855815 6.1875 5.9375 C6.71730469 6.83339844 7.24710937 7.72929688 7.79296875 8.65234375 C9 11 9 11 9 13 C7.35 13 5.7 13 4 13 C3.32404685 11.58774074 2.65959941 10.16997095 2 8.75 C1.62875 7.96109375 1.2575 7.1721875 0.875 6.359375 C0 4 0 4 0 0 Z " fill="#CDCCCD" transform="translate(70,86)"/>
<path d="M0 0 C0.66 0.33 1.32 0.66 2 1 C-1.31423136 5.48396007 -3.33896825 7.79552516 -9 9 C-10.32 9 -11.64 9 -13 9 C-11.92598892 6.08482708 -11.22189824 4.22189824 -9 2 C-8.01 2 -7.02 2 -6 2 C-5.67 2.66 -5.34 3.32 -5 4 C-3.35 2.68 -1.7 1.36 0 0 Z " fill="#E8E8E8" transform="translate(108,91)"/>
<path d="M0 0 C0 0.33 0 0.66 0 1 C-4.95 2.32 -9.9 3.64 -15 5 C-15.66 10.28 -16.32 15.56 -17 21 C-17.33 21 -17.66 21 -18 21 C-17.67 15.39 -17.34 9.78 -17 4 C-6.23913043 -1.55978261 -6.23913043 -1.55978261 0 0 Z " fill="#656C79" transform="translate(93,53)"/>
<path d="M0 0 C1.65 0 3.3 0 5 0 C5 0.66 5 1.32 5 2 C5.66 2 6.32 2 7 2 C7 1.34 7 0.68 7 0 C7.99 0 8.98 0 10 0 C10 0.66 10 1.32 10 2 C13.96 2 17.92 2 22 2 C22 2.33 22 2.66 22 3 C13.75 3 5.5 3 -3 3 C-2.01 2.67 -1.02 2.34 0 2 C0 1.34 0 0.68 0 0 Z " fill="#48658F" transform="translate(77,100)"/>
<path d="M0 0 C4.87072783 4.56630734 8.89156398 9.74976539 13 15 C11.68 15.33 10.36 15.66 9 16 C7.49445366 13.71180854 5.99542957 11.41978831 4.5 9.125 C4.07074219 8.47402344 3.64148438 7.82304688 3.19921875 7.15234375 C0 2.2265625 0 2.2265625 0 0 Z " fill="#C7C6C7" transform="translate(72,83)"/>
<path d="M0 0 C1.32 0.33 2.64 0.66 4 1 C3.67 3.64 3.34 6.28 3 9 C1.02 9 -0.96 9 -3 9 C-2.01 6.03 -1.02 3.06 0 0 Z " fill="#DDDCDC" transform="translate(56,90)"/>
<path d="M0 0 C3 0 3 0 4.71875 1.609375 C5.3065625 2.31578125 5.894375 3.0221875 6.5 3.75 C7.0878125 4.44609375 7.675625 5.1421875 8.28125 5.859375 C9.89985026 7.87526805 11.46396189 9.9207289 13 12 C12.01 12.33 11.02 12.66 10 13 C8.51851668 11.21024844 7.03988094 9.41813943 5.5625 7.625 C4.73878906 6.62726563 3.91507812 5.62953125 3.06640625 4.6015625 C1 2 1 2 0 0 Z " fill="#2B2828" transform="translate(79,87)"/>
<path d="M0 0 C0.33 1.32 0.66 2.64 1 4 C3.97 4 6.94 4 10 4 C9.67 4.66 9.34 5.32 9 6 C7.20866022 6.05391993 5.41686101 6.09275571 3.625 6.125 C2.62726562 6.14820312 1.62953125 6.17140625 0.6015625 6.1953125 C-2 6 -2 6 -4 4 C-2.68 4 -1.36 4 0 4 C0 2.68 0 1.36 0 0 Z " fill="#413E3F" transform="translate(59,95)"/>
<path d="M0 0 C0 2.31 0 4.62 0 7 C-0.99 7.495 -0.99 7.495 -2 8 C-2.33 6.35 -2.66 4.7 -3 3 C-3.99 3 -4.98 3 -6 3 C-6 2.34 -6 1.68 -6 1 C-3 0 -3 0 0 0 Z " fill="#3C4352" transform="translate(96,50)"/>
<path d="M0 0 C0.33 0.66 0.66 1.32 1 2 C-0.1875 4.625 -0.1875 4.625 -2 7 C-3.32 7 -4.64 7 -6 7 C-4.60667426 3.63279613 -3.0210714 2.0140476 0 0 Z " fill="#2B292C" transform="translate(48,92)"/>
<path d="M0 0 C0.66 0 1.32 0 2 0 C2.33 3.63 2.66 7.26 3 11 C2.67 10.01 2.34 9.02 2 8 C1.01 8 0.02 8 -1 8 C-0.67 5.36 -0.34 2.72 0 0 Z " fill="#CDCCCC" transform="translate(62,82)"/>
<path d="M0 0 C0.66 0 1.32 0 2 0 C1.71788123 1.6266848 1.42397625 3.25132896 1.125 4.875 C0.96257813 5.77992187 0.80015625 6.68484375 0.6328125 7.6171875 C0 10 0 10 -2 12 C-1.125 6.25 -1.125 6.25 0 4 C-0.66 4 -1.32 4 -2 4 C-1.34 2.68 -0.68 1.36 0 0 Z " fill="#A9A7A8" transform="translate(56,83)"/>
<path d="M0 0 C3.36720387 1.39332574 4.9859524 2.9789286 7 6 C2.25 5.25 2.25 5.25 0 3 C0 2.01 0 1.02 0 0 Z " fill="#5E5B5C" transform="translate(75,81)"/>
<path d="M0 0 C0.99 0 1.98 0 3 0 C2.34 1.98 1.68 3.96 1 6 C0.01 6 -0.98 6 -2 6 C-1.49396008 3.83125748 -1.00016187 2.00032373 0 0 Z " fill="#F4F4F4" transform="translate(53,87)"/>
<path d="M0 0 C0.99 0 1.98 0 3 0 C3 0.99 3 1.98 3 3 C0 5.1875 0 5.1875 -3 7 C-1.125 2.25 -1.125 2.25 0 0 Z " fill="#D1D0D1" transform="translate(98,93)"/>
<path d="M0 0 C2.6875 0.875 2.6875 0.875 5 2 C2.38058783 3.74627478 0.96175123 4.38722388 -2 5 C-2.33 4.01 -2.66 3.02 -3 2 C-2.01 1.34 -1.02 0.68 0 0 Z " fill="#DEDEDE" transform="translate(117,91)"/>
</svg>
